<?xml version="1.0" encoding="UTF-8" standalone="no"?>
<!DOCTYPE svg PUBLIC "-//W3C//DTD SVG 1.1//EN" "http://www.w3.org/Graphics/SVG/1.1/DTD/svg11.dtd">
<svg width="100%" height="100%" viewBox="0 0 32 32" version="1.1" xmlns="http://www.w3.org/2000/svg" xmlns:xlink="http://www.w3.org/1999/xlink" xml:space="preserve" xmlns:serif="http://www.serif.com/" style="fill-rule:evenodd;clip-rule:evenodd;stroke-linecap:round;stroke-linejoin:round;stroke-miterlimit:1.5;">
    <g transform="matrix(1,0,0,1,-0.118815,-0.176023)">
        <rect x="-2.185" y="-1.454" width="37.053" height="35.666" style="stroke:rgb(235,235,235);stroke-width:1px;"/>
    </g>
    <g id="Layer1" transform="matrix(1,0,0,1,-1.58348,0.213254)">
        <g>
            <g id="Layer2">
                <g transform="matrix(2.41688,0,0,2.41688,-59.9734,-8.32054)">
                    <path d="M31.208,13.795C30.704,13.763 30.228,13.645 29.78,13.441C29.332,13.237 28.944,12.953 28.616,12.589C28.288,12.225 28.028,11.783 27.836,11.263C27.644,10.743 27.548,10.143 27.548,9.463C27.548,8.751 27.654,8.123 27.866,7.579C28.078,7.035 28.366,6.581 28.73,6.217C29.094,5.853 29.518,5.579 30.002,5.395C30.486,5.211 31,5.119 31.544,5.119C32.08,5.119 32.586,5.211 33.062,5.395C33.538,5.579 33.956,5.853 34.316,6.217C34.676,6.581 34.962,7.035 35.174,7.579C35.386,8.123 35.492,8.751 35.492,9.463C35.492,10.087 35.412,10.643 35.252,11.131C35.092,11.619 34.87,12.041 34.586,12.397C34.302,12.753 33.97,13.041 33.59,13.261C33.232,13.468 32.582,13.762 32.381,13.789C32.367,13.791 31.753,13.836 31.744,13.836M28.772,9.463C28.772,9.967 28.836,10.425 28.964,10.837C29.092,11.249 29.274,11.599 29.51,11.887C29.746,12.175 30.034,12.397 30.374,12.553C30.714,12.709 31.096,12.787 31.52,12.787C31.944,12.787 32.324,12.709 32.66,12.553C32.996,12.397 33.282,12.175 33.518,11.887C33.754,11.599 33.936,11.249 34.064,10.837C34.192,10.425 34.256,9.967 34.256,9.463C34.256,8.959 34.192,8.501 34.064,8.089C33.936,7.677 33.754,7.327 33.518,7.039C33.282,6.751 32.996,6.529 32.66,6.373C32.324,6.217 31.944,6.139 31.52,6.139C31.096,6.139 30.714,6.217 30.374,6.373C30.034,6.529 29.746,6.751 29.51,7.039C29.274,7.327 29.092,7.677 28.964,8.089C28.836,8.501 28.772,8.959 28.772,9.463Z" style="fill:rgb(76,175,80);fill-rule:nonzero;"/>
                </g>
                <g transform="matrix(1,0,0,1,-5.73252,0.484012)">
                    <g>
                        <g transform="matrix(0.478328,0.329672,-0.329672,0.478328,18.9695,6.60591)">
                            <rect x="19.472" y="21.011" width="11.979" height="0.016" style="fill:rgb(76,175,80);stroke:rgb(235,235,235);stroke-width:3.17px;"/>
                        </g>
                        <path d="M27.078,27.038L32.117,23.724" style="fill:none;stroke:rgb(235,235,235);stroke-width:1.84px;"/>
                        <g transform="matrix(0.64559,0.763684,-0.763684,0.64559,34.3522,-11.1465)">
                            <path d="M25.219,21.398L27.059,23.973L23.38,23.973L25.219,21.398Z" style="fill:rgb(76,175,80);stroke:rgb(235,235,235);stroke-width:0.18px;"/>
                        </g>
                    </g>
                </g>
            </g>
        </g>
    </g>
</svg>
